<svg xmlns="http://www.w3.org/2000/svg" xmlns:xlink="http://www.w3.org/1999/xlink" width="500" zoomAndPan="magnify" viewBox="0 0 375 374.999991" height="500" preserveAspectRatio="xMidYMid meet" version="1.0"><defs><g/><clipPath id="12d699c645"><path d="M 87.382812 107.035156 L 190.882812 107.035156 L 190.882812 211 L 87.382812 211 Z M 87.382812 107.035156 " clip-rule="nonzero"/></clipPath><clipPath id="e20badeb1c"><path d="M 138.296875 107.609375 C 109.914062 108.167969 87.378906 131.640625 87.65625 160.136719 C 88.210938 188.636719 111.585938 211.269531 139.964844 210.988281 C 168.347656 210.429688 190.886719 186.960938 190.609375 158.460938 C 190.050781 129.960938 166.679688 107.050781 138.296875 107.609375 Z M 124.105469 116.273438 C 121.046875 120.460938 118.261719 125.769531 116.316406 131.917969 L 102.960938 131.917969 C 108.246094 124.933594 115.480469 119.34375 124.105469 116.273438 Z M 99.0625 138.066406 L 114.367188 138.066406 C 112.976562 143.652344 112.417969 149.800781 112.140625 156.226562 L 94.054688 156.226562 C 94.332031 149.800781 96.28125 143.652344 99.0625 138.066406 Z M 94.054688 162.375 L 112.140625 162.375 C 112.417969 168.800781 112.976562 174.945312 114.367188 180.535156 L 99.0625 180.535156 C 96.28125 174.945312 94.332031 168.800781 94.054688 162.375 Z M 102.960938 186.402344 L 116.316406 186.402344 C 118.261719 192.550781 121.046875 198.136719 124.105469 202.046875 C 115.480469 198.976562 108.246094 193.667969 102.960938 186.402344 Z M 136.347656 204.285156 C 129.671875 202.046875 124.941406 193.109375 122.714844 186.402344 L 136.347656 186.402344 Z M 136.347656 180.535156 L 120.765625 180.535156 C 119.375 174.945312 118.542969 168.800781 118.261719 162.375 L 136.347656 162.375 Z M 136.347656 156.226562 L 118.261719 156.226562 C 118.542969 149.800781 119.375 143.652344 120.765625 138.066406 L 136.347656 138.066406 Z M 136.347656 131.917969 L 122.714844 131.917969 C 125.21875 125.210938 129.671875 116.273438 136.347656 114.035156 Z M 184.484375 156.226562 L 166.398438 156.226562 C 166.121094 149.800781 165.566406 143.652344 164.175781 138.066406 L 179.476562 138.066406 C 182.261719 143.652344 184.207031 149.800781 184.484375 156.226562 Z M 175.582031 131.917969 L 162.226562 131.917969 C 160.277344 125.769531 157.496094 120.183594 154.433594 116.273438 C 163.0625 119.34375 170.296875 124.933594 175.582031 131.917969 Z M 142.191406 114.316406 C 148.871094 116.550781 153.601562 125.492188 155.828125 132.199219 L 142.191406 132.199219 Z M 142.191406 138.066406 L 157.773438 138.066406 C 159.164062 143.652344 160 149.800781 160.277344 156.226562 L 142.191406 156.226562 Z M 142.191406 162.375 L 160.277344 162.375 C 160 168.800781 159.164062 174.945312 157.773438 180.535156 L 142.191406 180.535156 Z M 142.191406 204.285156 L 142.191406 186.402344 L 155.828125 186.402344 C 153.601562 193.109375 149.148438 202.046875 142.191406 204.285156 Z M 154.433594 202.046875 C 157.496094 197.859375 160.277344 192.550781 162.226562 186.402344 L 175.582031 186.402344 C 170.296875 193.667969 163.0625 198.976562 154.433594 202.046875 Z M 179.476562 180.535156 L 164.175781 180.535156 C 165.566406 174.945312 166.121094 168.800781 166.398438 162.375 L 184.484375 162.375 C 184.207031 168.800781 182.261719 174.945312 179.476562 180.535156 Z M 179.476562 180.535156 " clip-rule="evenodd"/></clipPath><linearGradient x1="-179.419065" gradientTransform="matrix(1.092523, 0, 0, 1.097062, 284.101778, -61.441399)" y1="152.963803" x2="-86.078159" gradientUnits="userSpaceOnUse" y2="249.311487" id="232aec7d26"><stop stop-opacity="1" stop-color="rgb(0%, 28.999329%, 67.799377%)" offset="0"/><stop stop-opacity="1" stop-color="rgb(0%, 28.999329%, 67.799377%)" offset="0.015625"/><stop stop-opacity="1" stop-color="rgb(0%, 28.999329%, 67.799377%)" offset="0.0234375"/><stop stop-opacity="1" stop-color="rgb(0.141907%, 29.232788%, 67.887878%)" offset="0.0273438"/><stop stop-opacity="1" stop-color="rgb(0.283813%, 29.466248%, 67.976379%)" offset="0.03125"/><stop stop-opacity="1" stop-color="rgb(0.430298%, 29.705811%, 68.066406%)" offset="0.0351562"/><stop stop-opacity="1" stop-color="rgb(0.576782%, 29.946899%, 68.157959%)" offset="0.0390625"/><stop stop-opacity="1" stop-color="rgb(0.723267%, 30.186462%, 68.247986%)" offset="0.0429688"/><stop stop-opacity="1" stop-color="rgb(0.869751%, 30.426025%, 68.339539%)" offset="0.046875"/><stop stop-opacity="1" stop-color="rgb(1.016235%, 30.665588%, 68.429565%)" offset="0.0507812"/><stop stop-opacity="1" stop-color="rgb(1.16272%, 30.906677%, 68.521118%)" offset="0.0546875"/><stop stop-opacity="1" stop-color="rgb(1.309204%, 31.14624%, 68.611145%)" offset="0.0585938"/><stop stop-opacity="1" stop-color="rgb(1.455688%, 31.387329%, 68.702698%)" offset="0.0625"/><stop stop-opacity="1" stop-color="rgb(1.602173%, 31.626892%, 68.792725%)" offset="0.0664063"/><stop stop-opacity="1" stop-color="rgb(1.748657%, 31.866455%, 68.884277%)" offset="0.0703125"/><stop stop-opacity="1" stop-color="rgb(1.893616%, 32.106018%, 68.974304%)" offset="0.0742188"/><stop stop-opacity="1" stop-color="rgb(2.0401%, 32.347107%, 69.065857%)" offset="0.078125"/><stop stop-opacity="1" stop-color="rgb(2.186584%, 32.58667%, 69.155884%)" offset="0.0820312"/><stop stop-opacity="1" stop-color="rgb(2.333069%, 32.827759%, 69.247437%)" offset="0.0859375"/><stop stop-opacity="1" stop-color="rgb(2.479553%, 33.067322%, 69.337463%)" offset="0.0898438"/><stop stop-opacity="1" stop-color="rgb(2.626038%, 33.306885%, 69.429016%)" offset="0.09375"/><stop stop-opacity="1" stop-color="rgb(2.772522%, 33.546448%, 69.519043%)" offset="0.0976563"/><stop stop-opacity="1" stop-color="rgb(2.919006%, 33.787537%, 69.610596%)" offset="0.101563"/><stop stop-opacity="1" stop-color="rgb(3.065491%, 34.0271%, 69.700623%)" offset="0.105469"/><stop stop-opacity="1" stop-color="rgb(3.211975%, 34.268188%, 69.792175%)" offset="0.109375"/><stop stop-opacity="1" stop-color="rgb(3.358459%, 34.507751%, 69.882202%)" offset="0.113281"/><stop stop-opacity="1" stop-color="rgb(3.504944%, 34.74884%, 69.973755%)" offset="0.117188"/><stop stop-opacity="1" stop-color="rgb(3.651428%, 34.988403%, 70.065308%)" offset="0.121094"/><stop stop-opacity="1" stop-color="rgb(3.797913%, 35.227966%, 70.15686%)" offset="0.125"/><stop stop-opacity="1" stop-color="rgb(3.944397%, 35.467529%, 70.246887%)" offset="0.128906"/><stop stop-opacity="1" stop-color="rgb(4.090881%, 35.708618%, 70.33844%)" offset="0.132813"/><stop stop-opacity="1" stop-color="rgb(4.237366%, 35.948181%, 70.428467%)" offset="0.136719"/><stop stop-opacity="1" stop-color="rgb(4.38385%, 36.18927%, 70.52002%)" offset="0.140625"/><stop stop-opacity="1" stop-color="rgb(4.530334%, 36.428833%, 70.610046%)" offset="0.144531"/><stop stop-opacity="1" stop-color="rgb(4.676819%, 36.668396%, 70.701599%)" offset="0.148438"/><stop stop-opacity="1" stop-color="rgb(4.821777%, 36.907959%, 70.791626%)" offset="0.152344"/><stop stop-opacity="1" stop-color="rgb(4.968262%, 37.149048%, 70.883179%)" offset="0.15625"/><stop stop-opacity="1" stop-color="rgb(5.114746%, 37.388611%, 70.973206%)" offset="0.160156"/><stop stop-opacity="1" stop-color="rgb(5.26123%, 37.6297%, 71.064758%)" offset="0.164062"/><stop stop-opacity="1" stop-color="rgb(5.407715%, 37.869263%, 71.154785%)" offset="0.167969"/><stop stop-opacity="1" stop-color="rgb(5.554199%, 38.108826%, 71.246338%)" offset="0.171875"/><stop stop-opacity="1" stop-color="rgb(5.700684%, 38.348389%, 71.336365%)" offset="0.175781"/><stop stop-opacity="1" stop-color="rgb(5.847168%, 38.589478%, 71.427917%)" offset="0.179688"/><stop stop-opacity="1" stop-color="rgb(5.993652%, 38.829041%, 71.517944%)" offset="0.183594"/><stop stop-opacity="1" stop-color="rgb(6.140137%, 39.070129%, 71.609497%)" offset="0.1875"/><stop stop-opacity="1" stop-color="rgb(6.286621%, 39.309692%, 71.699524%)" offset="0.191406"/><stop stop-opacity="1" stop-color="rgb(6.433105%, 39.550781%, 71.791077%)" offset="0.195313"/><stop stop-opacity="1" stop-color="rgb(6.57959%, 39.790344%, 71.881104%)" offset="0.199219"/><stop stop-opacity="1" stop-color="rgb(6.726074%, 40.029907%, 71.972656%)" offset="0.203125"/><stop stop-opacity="1" stop-color="rgb(6.872559%, 40.26947%, 72.062683%)" offset="0.207031"/><stop stop-opacity="1" stop-color="rgb(7.019043%, 40.510559%, 72.154236%)" offset="0.210938"/><stop stop-opacity="1" stop-color="rgb(7.165527%, 40.750122%, 72.244263%)" offset="0.214844"/><stop stop-opacity="1" stop-color="rgb(7.312012%, 40.991211%, 72.335815%)" offset="0.21875"/><stop stop-opacity="1" stop-color="rgb(7.458496%, 41.230774%, 72.427368%)" offset="0.222656"/><stop stop-opacity="1" stop-color="rgb(7.60498%, 41.470337%, 72.518921%)" offset="0.226563"/><stop stop-opacity="1" stop-color="rgb(7.749939%, 41.7099%, 72.608948%)" offset="0.230469"/><stop stop-opacity="1" stop-color="rgb(7.896423%, 41.950989%, 72.7005%)" offset="0.234375"/><stop stop-opacity="1" stop-color="rgb(8.042908%, 42.190552%, 72.790527%)" offset="0.238281"/><stop stop-opacity="1" stop-color="rgb(8.189392%, 42.431641%, 72.88208%)" offset="0.242187"/><stop stop-opacity="1" stop-color="rgb(8.335876%, 42.671204%, 72.972107%)" offset="0.246094"/><stop stop-opacity="1" stop-color="rgb(8.482361%, 42.910767%, 73.06366%)" offset="0.25"/><stop stop-opacity="1" stop-color="rgb(8.628845%, 43.15033%, 73.153687%)" offset="0.253906"/><stop stop-opacity="1" stop-color="rgb(8.77533%, 43.391418%, 73.245239%)" offset="0.257812"/><stop stop-opacity="1" stop-color="rgb(8.921814%, 43.630981%, 73.335266%)" offset="0.261719"/><stop stop-opacity="1" stop-color="rgb(9.068298%, 43.87207%, 73.426819%)" offset="0.265625"/><stop stop-opacity="1" stop-color="rgb(9.214783%, 44.111633%, 73.516846%)" offset="0.269531"/><stop stop-opacity="1" stop-color="rgb(9.361267%, 44.351196%, 73.608398%)" offset="0.273438"/><stop stop-opacity="1" stop-color="rgb(9.507751%, 44.590759%, 73.698425%)" offset="0.277344"/><stop stop-opacity="1" stop-color="rgb(9.654236%, 44.831848%, 73.789978%)" offset="0.28125"/><stop stop-opacity="1" stop-color="rgb(9.80072%, 45.071411%, 73.880005%)" offset="0.285156"/><stop stop-opacity="1" stop-color="rgb(9.947205%, 45.3125%, 73.971558%)" offset="0.289062"/><stop stop-opacity="1" stop-color="rgb(10.093689%, 45.552063%, 74.061584%)" offset="0.292969"/><stop stop-opacity="1" stop-color="rgb(10.240173%, 45.793152%, 74.153137%)" offset="0.296875"/><stop stop-opacity="1" stop-color="rgb(10.386658%, 46.032715%, 74.243164%)" offset="0.300781"/><stop stop-opacity="1" stop-color="rgb(10.533142%, 46.272278%, 74.334717%)" offset="0.304688"/><stop stop-opacity="1" stop-color="rgb(10.679626%, 46.511841%, 74.424744%)" offset="0.308594"/><stop stop-opacity="1" stop-color="rgb(10.826111%, 46.75293%, 74.516296%)" offset="0.3125"/><stop stop-opacity="1" stop-color="rgb(10.971069%, 46.992493%, 74.606323%)" offset="0.316406"/><stop stop-opacity="1" stop-color="rgb(11.117554%, 47.233582%, 74.697876%)" offset="0.320313"/><stop stop-opacity="1" stop-color="rgb(11.264038%, 47.473145%, 74.789429%)" offset="0.324219"/><stop stop-opacity="1" stop-color="rgb(11.410522%, 47.712708%, 74.880981%)" offset="0.328125"/><stop stop-opacity="1" stop-color="rgb(11.557007%, 47.952271%, 74.971008%)" offset="0.332031"/><stop stop-opacity="1" stop-color="rgb(11.703491%, 48.193359%, 75.062561%)" offset="0.335937"/><stop stop-opacity="1" stop-color="rgb(11.849976%, 48.432922%, 75.152588%)" offset="0.339844"/><stop stop-opacity="1" stop-color="rgb(11.99646%, 48.674011%, 75.244141%)" offset="0.34375"/><stop stop-opacity="1" stop-color="rgb(12.142944%, 48.913574%, 75.334167%)" offset="0.347656"/><stop stop-opacity="1" stop-color="rgb(12.289429%, 49.153137%, 75.42572%)" offset="0.351562"/><stop stop-opacity="1" stop-color="rgb(12.435913%, 49.3927%, 75.515747%)" offset="0.355469"/><stop stop-opacity="1" stop-color="rgb(12.582397%, 49.633789%, 75.6073%)" offset="0.359375"/><stop stop-opacity="1" stop-color="rgb(12.728882%, 49.873352%, 75.697327%)" offset="0.363281"/><stop stop-opacity="1" stop-color="rgb(12.875366%, 50.114441%, 75.788879%)" offset="0.367188"/><stop stop-opacity="1" stop-color="rgb(13.021851%, 50.354004%, 75.878906%)" offset="0.371094"/><stop stop-opacity="1" stop-color="rgb(13.168335%, 50.595093%, 75.970459%)" offset="0.375"/><stop stop-opacity="1" stop-color="rgb(13.314819%, 50.834656%, 76.060486%)" offset="0.378906"/><stop stop-opacity="1" stop-color="rgb(13.461304%, 51.074219%, 76.152039%)" offset="0.382812"/><stop stop-opacity="1" stop-color="rgb(13.607788%, 51.313782%, 76.242065%)" offset="0.386719"/><stop stop-opacity="1" stop-color="rgb(13.754272%, 51.554871%, 76.333618%)" offset="0.390625"/><stop stop-opacity="1" stop-color="rgb(13.899231%, 51.794434%, 76.423645%)" offset="0.394531"/><stop stop-opacity="1" stop-color="rgb(14.045715%, 52.035522%, 76.515198%)" offset="0.398438"/><stop stop-opacity="1" stop-color="rgb(14.1922%, 52.275085%, 76.605225%)" offset="0.402344"/><stop stop-opacity="1" stop-color="rgb(14.338684%, 52.514648%, 76.696777%)" offset="0.40625"/><stop stop-opacity="1" stop-color="rgb(14.485168%, 52.754211%, 76.786804%)" offset="0.410156"/><stop stop-opacity="1" stop-color="rgb(14.631653%, 52.9953%, 76.878357%)" offset="0.414063"/><stop stop-opacity="1" stop-color="rgb(14.778137%, 53.234863%, 76.968384%)" offset="0.417969"/><stop stop-opacity="1" stop-color="rgb(14.924622%, 53.475952%, 77.059937%)" offset="0.421875"/><stop stop-opacity="1" stop-color="rgb(15.071106%, 53.715515%, 77.149963%)" offset="0.425781"/><stop stop-opacity="1" stop-color="rgb(15.21759%, 53.955078%, 77.241516%)" offset="0.429687"/><stop stop-opacity="1" stop-color="rgb(15.364075%, 54.194641%, 77.333069%)" offset="0.433594"/><stop stop-opacity="1" stop-color="rgb(15.510559%, 54.43573%, 77.424622%)" offset="0.4375"/><stop stop-opacity="1" stop-color="rgb(15.657043%, 54.675293%, 77.514648%)" offset="0.441406"/><stop stop-opacity="1" stop-color="rgb(15.803528%, 54.916382%, 77.606201%)" offset="0.445312"/><stop stop-opacity="1" stop-color="rgb(15.950012%, 55.155945%, 77.696228%)" offset="0.449219"/><stop stop-opacity="1" stop-color="rgb(16.096497%, 55.397034%, 77.787781%)" offset="0.453125"/><stop stop-opacity="1" stop-color="rgb(16.242981%, 55.636597%, 77.877808%)" offset="0.457031"/><stop stop-opacity="1" stop-color="rgb(16.389465%, 55.87616%, 77.96936%)" offset="0.460938"/><stop stop-opacity="1" stop-color="rgb(16.53595%, 56.115723%, 78.059387%)" offset="0.464844"/><stop stop-opacity="1" stop-color="rgb(16.682434%, 56.356812%, 78.15094%)" offset="0.46875"/><stop stop-opacity="1" stop-color="rgb(16.827393%, 56.596375%, 78.240967%)" offset="0.472656"/><stop stop-opacity="1" stop-color="rgb(16.973877%, 56.837463%, 78.33252%)" offset="0.476562"/><stop stop-opacity="1" stop-color="rgb(17.120361%, 57.077026%, 78.422546%)" offset="0.480469"/><stop stop-opacity="1" stop-color="rgb(17.266846%, 57.316589%, 78.514099%)" offset="0.484375"/><stop stop-opacity="1" stop-color="rgb(17.41333%, 57.556152%, 78.604126%)" offset="0.488281"/><stop stop-opacity="1" stop-color="rgb(17.559814%, 57.797241%, 78.695679%)" offset="0.492188"/><stop stop-opacity="1" stop-color="rgb(17.706299%, 58.036804%, 78.785706%)" offset="0.496094"/><stop stop-opacity="1" stop-color="rgb(17.852783%, 58.277893%, 78.877258%)" offset="0.5"/><stop stop-opacity="1" stop-color="rgb(17.999268%, 58.517456%, 78.967285%)" offset="0.503906"/><stop stop-opacity="1" stop-color="rgb(18.145752%, 58.757019%, 79.058838%)" offset="0.507812"/><stop stop-opacity="1" stop-color="rgb(18.292236%, 58.996582%, 79.148865%)" offset="0.511719"/><stop stop-opacity="1" stop-color="rgb(18.438721%, 59.237671%, 79.240417%)" offset="0.515625"/><stop stop-opacity="1" stop-color="rgb(18.585205%, 59.477234%, 79.330444%)" offset="0.519531"/><stop stop-opacity="1" stop-color="rgb(18.731689%, 59.718323%, 79.421997%)" offset="0.523438"/><stop stop-opacity="1" stop-color="rgb(18.878174%, 59.957886%, 79.512024%)" offset="0.527344"/><stop stop-opacity="1" stop-color="rgb(19.024658%, 60.198975%, 79.603577%)" offset="0.53125"/><stop stop-opacity="1" stop-color="rgb(19.171143%, 60.438538%, 79.695129%)" offset="0.535156"/><stop stop-opacity="1" stop-color="rgb(19.317627%, 60.678101%, 79.786682%)" offset="0.539063"/><stop stop-opacity="1" stop-color="rgb(19.464111%, 60.917664%, 79.876709%)" offset="0.542969"/><stop stop-opacity="1" stop-color="rgb(19.610596%, 61.158752%, 79.968262%)" offset="0.546875"/><stop stop-opacity="1" stop-color="rgb(19.755554%, 61.398315%, 80.058289%)" offset="0.550781"/><stop stop-opacity="1" stop-color="rgb(19.902039%, 61.639404%, 80.149841%)" offset="0.554688"/><stop stop-opacity="1" stop-color="rgb(20.048523%, 61.878967%, 80.239868%)" offset="0.558594"/><stop stop-opacity="1" stop-color="rgb(20.195007%, 62.11853%, 80.331421%)" offset="0.5625"/><stop stop-opacity="1" stop-color="rgb(20.341492%, 62.358093%, 80.421448%)" offset="0.566406"/><stop stop-opacity="1" stop-color="rgb(20.487976%, 62.599182%, 80.513%)" offset="0.570312"/><stop stop-opacity="1" stop-color="rgb(20.63446%, 62.838745%, 80.603027%)" offset="0.574219"/><stop stop-opacity="1" stop-color="rgb(20.780945%, 63.079834%, 80.69458%)" offset="0.578125"/><stop stop-opacity="1" stop-color="rgb(20.927429%, 63.319397%, 80.784607%)" offset="0.582031"/><stop stop-opacity="1" stop-color="rgb(21.073914%, 63.55896%, 80.87616%)" offset="0.585938"/><stop stop-opacity="1" stop-color="rgb(21.220398%, 63.798523%, 80.966187%)" offset="0.589844"/><stop stop-opacity="1" stop-color="rgb(21.366882%, 64.039612%, 81.057739%)" offset="0.59375"/><stop stop-opacity="1" stop-color="rgb(21.513367%, 64.279175%, 81.147766%)" offset="0.597656"/><stop stop-opacity="1" stop-color="rgb(21.659851%, 64.520264%, 81.239319%)" offset="0.601562"/><stop stop-opacity="1" stop-color="rgb(21.806335%, 64.759827%, 81.329346%)" offset="0.605469"/><stop stop-opacity="1" stop-color="rgb(21.95282%, 65.000916%, 81.420898%)" offset="0.609375"/><stop stop-opacity="1" stop-color="rgb(22.099304%, 65.240479%, 81.510925%)" offset="0.613281"/><stop stop-opacity="1" stop-color="rgb(22.245789%, 65.480042%, 81.602478%)" offset="0.617188"/><stop stop-opacity="1" stop-color="rgb(22.392273%, 65.719604%, 81.692505%)" offset="0.621094"/><stop stop-opacity="1" stop-color="rgb(22.538757%, 65.960693%, 81.784058%)" offset="0.625"/><stop stop-opacity="1" stop-color="rgb(22.685242%, 66.200256%, 81.874084%)" offset="0.628906"/><stop stop-opacity="1" stop-color="rgb(22.831726%, 66.441345%, 81.965637%)" offset="0.632813"/><stop stop-opacity="1" stop-color="rgb(22.976685%, 66.680908%, 82.05719%)" offset="0.636719"/><stop stop-opacity="1" stop-color="rgb(23.123169%, 66.920471%, 82.148743%)" offset="0.640625"/><stop stop-opacity="1" stop-color="rgb(23.269653%, 67.160034%, 82.23877%)" offset="0.644531"/><stop stop-opacity="1" stop-color="rgb(23.416138%, 67.401123%, 82.330322%)" offset="0.648438"/><stop stop-opacity="1" stop-color="rgb(23.562622%, 67.640686%, 82.420349%)" offset="0.652344"/><stop stop-opacity="1" stop-color="rgb(23.709106%, 67.881775%, 82.511902%)" offset="0.65625"/><stop stop-opacity="1" stop-color="rgb(23.855591%, 68.121338%, 82.601929%)" offset="0.660156"/><stop stop-opacity="1" stop-color="rgb(24.002075%, 68.360901%, 82.693481%)" offset="0.664062"/><stop stop-opacity="1" stop-color="rgb(24.14856%, 68.600464%, 82.783508%)" offset="0.667969"/><stop stop-opacity="1" stop-color="rgb(24.295044%, 68.841553%, 82.875061%)" offset="0.671875"/><stop stop-opacity="1" stop-color="rgb(24.441528%, 69.081116%, 82.965088%)" offset="0.675781"/><stop stop-opacity="1" stop-color="rgb(24.588013%, 69.322205%, 83.056641%)" offset="0.679688"/><stop stop-opacity="1" stop-color="rgb(24.734497%, 69.561768%, 83.146667%)" offset="0.683594"/><stop stop-opacity="1" stop-color="rgb(24.880981%, 69.801331%, 83.23822%)" offset="0.6875"/><stop stop-opacity="1" stop-color="rgb(25.027466%, 70.040894%, 83.328247%)" offset="0.691406"/><stop stop-opacity="1" stop-color="rgb(25.17395%, 70.281982%, 83.4198%)" offset="0.695312"/><stop stop-opacity="1" stop-color="rgb(25.320435%, 70.521545%, 83.509827%)" offset="0.699219"/><stop stop-opacity="1" stop-color="rgb(25.466919%, 70.762634%, 83.601379%)" offset="0.703125"/><stop stop-opacity="1" stop-color="rgb(25.613403%, 71.002197%, 83.691406%)" offset="0.707031"/><stop stop-opacity="1" stop-color="rgb(25.759888%, 71.243286%, 83.782959%)" offset="0.710938"/><stop stop-opacity="1" stop-color="rgb(25.904846%, 71.482849%, 83.872986%)" offset="0.714844"/><stop stop-opacity="1" stop-color="rgb(26.051331%, 71.722412%, 83.964539%)" offset="0.71875"/><stop stop-opacity="1" stop-color="rgb(26.197815%, 71.961975%, 84.054565%)" offset="0.722656"/><stop stop-opacity="1" stop-color="rgb(26.344299%, 72.203064%, 84.146118%)" offset="0.726563"/><stop stop-opacity="1" stop-color="rgb(26.490784%, 72.442627%, 84.236145%)" offset="0.730469"/><stop stop-opacity="1" stop-color="rgb(26.637268%, 72.683716%, 84.327698%)" offset="0.734375"/><stop stop-opacity="1" stop-color="rgb(26.783752%, 72.923279%, 84.417725%)" offset="0.738281"/><stop stop-opacity="1" stop-color="rgb(26.930237%, 73.162842%, 84.509277%)" offset="0.742188"/><stop stop-opacity="1" stop-color="rgb(27.076721%, 73.402405%, 84.60083%)" offset="0.746094"/><stop stop-opacity="1" stop-color="rgb(27.223206%, 73.643494%, 84.692383%)" offset="0.75"/><stop stop-opacity="1" stop-color="rgb(27.36969%, 73.883057%, 84.78241%)" offset="0.753906"/><stop stop-opacity="1" stop-color="rgb(27.516174%, 74.124146%, 84.873962%)" offset="0.757812"/><stop stop-opacity="1" stop-color="rgb(27.662659%, 74.363708%, 84.963989%)" offset="0.761719"/><stop stop-opacity="1" stop-color="rgb(27.809143%, 74.603271%, 85.055542%)" offset="0.765625"/><stop stop-opacity="1" stop-color="rgb(27.955627%, 74.842834%, 85.145569%)" offset="0.769531"/><stop stop-opacity="1" stop-color="rgb(28.102112%, 75.083923%, 85.237122%)" offset="0.773437"/><stop stop-opacity="1" stop-color="rgb(28.248596%, 75.323486%, 85.327148%)" offset="0.777344"/><stop stop-opacity="1" stop-color="rgb(28.395081%, 75.564575%, 85.418701%)" offset="0.78125"/><stop stop-opacity="1" stop-color="rgb(28.541565%, 75.804138%, 85.508728%)" offset="0.785156"/><stop stop-opacity="1" stop-color="rgb(28.688049%, 76.045227%, 85.600281%)" offset="0.789062"/><stop stop-opacity="1" stop-color="rgb(28.833008%, 76.28479%, 85.690308%)" offset="0.792969"/><stop stop-opacity="1" stop-color="rgb(28.979492%, 76.524353%, 85.78186%)" offset="0.796875"/><stop stop-opacity="1" stop-color="rgb(29.125977%, 76.763916%, 85.871887%)" offset="0.800781"/><stop stop-opacity="1" stop-color="rgb(29.272461%, 77.005005%, 85.96344%)" offset="0.804688"/><stop stop-opacity="1" stop-color="rgb(29.418945%, 77.244568%, 86.053467%)" offset="0.808594"/><stop stop-opacity="1" stop-color="rgb(29.56543%, 77.485657%, 86.14502%)" offset="0.8125"/><stop stop-opacity="1" stop-color="rgb(29.711914%, 77.72522%, 86.235046%)" offset="0.816406"/><stop stop-opacity="1" stop-color="rgb(29.858398%, 77.964783%, 86.326599%)" offset="0.820312"/><stop stop-opacity="1" stop-color="rgb(30.004883%, 78.204346%, 86.416626%)" offset="0.824219"/><stop stop-opacity="1" stop-color="rgb(30.151367%, 78.445435%, 86.508179%)" offset="0.828125"/><stop stop-opacity="1" stop-color="rgb(30.297852%, 78.684998%, 86.598206%)" offset="0.832031"/><stop stop-opacity="1" stop-color="rgb(30.444336%, 78.926086%, 86.689758%)" offset="0.835938"/><stop stop-opacity="1" stop-color="rgb(30.59082%, 79.165649%, 86.779785%)" offset="0.839844"/><stop stop-opacity="1" stop-color="rgb(30.737305%, 79.405212%, 86.871338%)" offset="0.84375"/><stop stop-opacity="1" stop-color="rgb(30.883789%, 79.644775%, 86.962891%)" offset="0.847656"/><stop stop-opacity="1" stop-color="rgb(31.030273%, 79.885864%, 87.054443%)" offset="0.851562"/><stop stop-opacity="1" stop-color="rgb(31.176758%, 80.125427%, 87.14447%)" offset="0.855469"/><stop stop-opacity="1" stop-color="rgb(31.323242%, 80.366516%, 87.236023%)" offset="0.859375"/><stop stop-opacity="1" stop-color="rgb(31.469727%, 80.606079%, 87.32605%)" offset="0.863281"/><stop stop-opacity="1" stop-color="rgb(31.616211%, 80.847168%, 87.417603%)" offset="0.867187"/><stop stop-opacity="1" stop-color="rgb(31.761169%, 81.086731%, 87.507629%)" offset="0.871094"/><stop stop-opacity="1" stop-color="rgb(31.907654%, 81.326294%, 87.599182%)" offset="0.875"/><stop stop-opacity="1" stop-color="rgb(32.054138%, 81.565857%, 87.689209%)" offset="0.878906"/><stop stop-opacity="1" stop-color="rgb(32.200623%, 81.806946%, 87.780762%)" offset="0.882812"/><stop stop-opacity="1" stop-color="rgb(32.347107%, 82.046509%, 87.870789%)" offset="0.886719"/><stop stop-opacity="1" stop-color="rgb(32.493591%, 82.287598%, 87.962341%)" offset="0.890625"/><stop stop-opacity="1" stop-color="rgb(32.640076%, 82.527161%, 88.052368%)" offset="0.894531"/><stop stop-opacity="1" stop-color="rgb(32.78656%, 82.766724%, 88.143921%)" offset="0.898438"/><stop stop-opacity="1" stop-color="rgb(32.933044%, 83.006287%, 88.233948%)" offset="0.902344"/><stop stop-opacity="1" stop-color="rgb(33.079529%, 83.247375%, 88.3255%)" offset="0.90625"/><stop stop-opacity="1" stop-color="rgb(33.226013%, 83.486938%, 88.415527%)" offset="0.910156"/><stop stop-opacity="1" stop-color="rgb(33.372498%, 83.728027%, 88.50708%)" offset="0.914062"/><stop stop-opacity="1" stop-color="rgb(33.518982%, 83.96759%, 88.597107%)" offset="0.917969"/><stop stop-opacity="1" stop-color="rgb(33.665466%, 84.207153%, 88.68866%)" offset="0.921875"/><stop stop-opacity="1" stop-color="rgb(33.811951%, 84.446716%, 88.778687%)" offset="0.925781"/><stop stop-opacity="1" stop-color="rgb(33.958435%, 84.687805%, 88.870239%)" offset="0.929688"/><stop stop-opacity="1" stop-color="rgb(34.104919%, 84.927368%, 88.960266%)" offset="0.933594"/><stop stop-opacity="1" stop-color="rgb(34.251404%, 85.168457%, 89.051819%)" offset="0.9375"/><stop stop-opacity="1" stop-color="rgb(34.397888%, 85.40802%, 89.141846%)" offset="0.941406"/><stop stop-opacity="1" stop-color="rgb(34.544373%, 85.649109%, 89.233398%)" offset="0.945312"/><stop stop-opacity="1" stop-color="rgb(34.689331%, 85.888672%, 89.324951%)" offset="0.949219"/><stop stop-opacity="1" stop-color="rgb(34.835815%, 86.128235%, 89.416504%)" offset="0.953125"/><stop stop-opacity="1" stop-color="rgb(34.9823%, 86.367798%, 89.506531%)" offset="0.957031"/><stop stop-opacity="1" stop-color="rgb(35.128784%, 86.608887%, 89.598083%)" offset="0.960937"/><stop stop-opacity="1" stop-color="rgb(35.275269%, 86.84845%, 89.68811%)" offset="0.964844"/><stop stop-opacity="1" stop-color="rgb(35.421753%, 87.089539%, 89.779663%)" offset="0.96875"/><stop stop-opacity="1" stop-color="rgb(35.568237%, 87.329102%, 89.86969%)" offset="0.972656"/><stop stop-opacity="1" stop-color="rgb(35.714722%, 87.568665%, 89.961243%)" offset="0.976562"/><stop stop-opacity="1" stop-color="rgb(35.861206%, 87.808228%, 90.05127%)" offset="0.980469"/><stop stop-opacity="1" stop-color="rgb(36.00769%, 88.049316%, 90.142822%)" offset="0.984375"/><stop stop-opacity="1" stop-color="rgb(36.053467%, 88.124084%, 90.170288%)" offset="1"/></linearGradient><clipPath id="5ec02d7b16"><path d="M 191 181 L 286 181 L 286 205.578125 L 191 205.578125 Z M 191 181 " clip-rule="nonzero"/></clipPath><clipPath id="cf1c8c23eb"><path d="M 191 136 L 306.5 136 L 306.5 161 L 191 161 Z M 191 136 " clip-rule="nonzero"/></clipPath><clipPath id="09dab5987a"><path d="M 191 107.328125 L 281 107.328125 L 281 132 L 191 132 Z M 191 107.328125 " clip-rule="nonzero"/></clipPath></defs><g fill="#5ce1e6" fill-opacity="1"><g transform="translate(88.478471, 238.555545)"><g><path d="M 3.65625 -5.984375 L 3.65625 0 L 1.984375 0 L 1.984375 -14.390625 L 5.921875 -14.390625 C 7.691406 -14.390625 9 -14.050781 9.84375 -13.375 C 10.6875 -12.695312 11.109375 -11.679688 11.109375 -10.328125 C 11.109375 -8.421875 10.140625 -7.132812 8.203125 -6.46875 L 12.109375 0 L 10.140625 0 L 6.65625 -5.984375 Z M 3.65625 -7.421875 L 5.9375 -7.421875 C 7.125 -7.421875 7.992188 -7.65625 8.546875 -8.125 C 9.097656 -8.59375 9.375 -9.296875 9.375 -10.234375 C 9.375 -11.179688 9.09375 -11.863281 8.53125 -12.28125 C 7.96875 -12.707031 7.066406 -12.921875 5.828125 -12.921875 L 3.65625 -12.921875 Z M 3.65625 -7.421875 "/></g></g></g><g fill="#5ce1e6" fill-opacity="1"><g transform="translate(102.403528, 238.555545)"><g><path d="M 10 0 L 1.984375 0 L 1.984375 -14.390625 L 10 -14.390625 L 10 -12.90625 L 3.65625 -12.90625 L 3.65625 -8.265625 L 9.609375 -8.265625 L 9.609375 -6.796875 L 3.65625 -6.796875 L 3.65625 -1.5 L 10 -1.5 Z M 10 0 "/></g></g></g><g fill="#5ce1e6" fill-opacity="1"><g transform="translate(115.079288, 238.555545)"><g><path d="M 10 0 L 1.984375 0 L 1.984375 -14.390625 L 10 -14.390625 L 10 -12.90625 L 3.65625 -12.90625 L 3.65625 -8.265625 L 9.609375 -8.265625 L 9.609375 -6.796875 L 3.65625 -6.796875 L 3.65625 -1.5 L 10 -1.5 Z M 10 0 "/></g></g></g><g fill="#5ce1e6" fill-opacity="1"><g transform="translate(127.755047, 238.555545)"><g><path d="M 3.65625 0 L 1.984375 0 L 1.984375 -14.390625 L 10 -14.390625 L 10 -12.90625 L 3.65625 -12.90625 L 3.65625 -7.640625 L 9.609375 -7.640625 L 9.609375 -6.15625 L 3.65625 -6.15625 Z M 3.65625 0 "/></g></g></g><g fill="#5ce1e6" fill-opacity="1"><g transform="translate(139.624172, 238.555545)"><g><path d="M 10.09375 -3.828125 C 10.09375 -2.554688 9.632812 -1.566406 8.71875 -0.859375 C 7.800781 -0.148438 6.554688 0.203125 4.984375 0.203125 C 3.273438 0.203125 1.960938 -0.0195312 1.046875 -0.46875 L 1.046875 -2.078125 C 1.628906 -1.828125 2.269531 -1.628906 2.96875 -1.484375 C 3.664062 -1.335938 4.359375 -1.265625 5.046875 -1.265625 C 6.160156 -1.265625 7 -1.476562 7.5625 -1.90625 C 8.125 -2.332031 8.40625 -2.921875 8.40625 -3.671875 C 8.40625 -4.171875 8.300781 -4.578125 8.09375 -4.890625 C 7.894531 -5.210938 7.5625 -5.507812 7.09375 -5.78125 C 6.625 -6.050781 5.910156 -6.351562 4.953125 -6.6875 C 3.617188 -7.164062 2.664062 -7.734375 2.09375 -8.390625 C 1.519531 -9.046875 1.234375 -9.90625 1.234375 -10.96875 C 1.234375 -12.070312 1.648438 -12.953125 2.484375 -13.609375 C 3.316406 -14.265625 4.414062 -14.59375 5.78125 -14.59375 C 7.21875 -14.59375 8.535156 -14.332031 9.734375 -13.8125 L 9.21875 -12.359375 C 8.03125 -12.847656 6.875 -13.09375 5.75 -13.09375 C 4.863281 -13.09375 4.171875 -12.898438 3.671875 -12.515625 C 3.171875 -12.140625 2.921875 -11.613281 2.921875 -10.9375 C 2.921875 -10.445312 3.007812 -10.039062 3.1875 -9.71875 C 3.375 -9.394531 3.6875 -9.097656 4.125 -8.828125 C 4.5625 -8.566406 5.226562 -8.28125 6.125 -7.96875 C 7.632812 -7.425781 8.671875 -6.847656 9.234375 -6.234375 C 9.804688 -5.617188 10.09375 -4.816406 10.09375 -3.828125 Z M 10.09375 -3.828125 "/></g></g></g><g fill="#5ce1e6" fill-opacity="1"><g transform="translate(152.152373, 238.555545)"><g><path d="M 5.640625 -7.1875 L 9.484375 -14.390625 L 11.28125 -14.390625 L 6.484375 -5.578125 L 6.484375 0 L 4.796875 0 L 4.796875 -5.5 L 0 -14.390625 L 1.828125 -14.390625 Z M 5.640625 -7.1875 "/></g></g></g><g fill="#5ce1e6" fill-opacity="1"><g transform="translate(164.906831, 238.555545)"><g><path d="M 10.09375 -3.828125 C 10.09375 -2.554688 9.632812 -1.566406 8.71875 -0.859375 C 7.800781 -0.148438 6.554688 0.203125 4.984375 0.203125 C 3.273438 0.203125 1.960938 -0.0195312 1.046875 -0.46875 L 1.046875 -2.078125 C 1.628906 -1.828125 2.269531 -1.628906 2.96875 -1.484375 C 3.664062 -1.335938 4.359375 -1.265625 5.046875 -1.265625 C 6.160156 -1.265625 7 -1.476562 7.5625 -1.90625 C 8.125 -2.332031 8.40625 -2.921875 8.40625 -3.671875 C 8.40625 -4.171875 8.300781 -4.578125 8.09375 -4.890625 C 7.894531 -5.210938 7.5625 -5.507812 7.09375 -5.78125 C 6.625 -6.050781 5.910156 -6.351562 4.953125 -6.6875 C 3.617188 -7.164062 2.664062 -7.734375 2.09375 -8.390625 C 1.519531 -9.046875 1.234375 -9.90625 1.234375 -10.96875 C 1.234375 -12.070312 1.648438 -12.953125 2.484375 -13.609375 C 3.316406 -14.265625 4.414062 -14.59375 5.78125 -14.59375 C 7.21875 -14.59375 8.535156 -14.332031 9.734375 -13.8125 L 9.21875 -12.359375 C 8.03125 -12.847656 6.875 -13.09375 5.75 -13.09375 C 4.863281 -13.09375 4.171875 -12.898438 3.671875 -12.515625 C 3.171875 -12.140625 2.921875 -11.613281 2.921875 -10.9375 C 2.921875 -10.445312 3.007812 -10.039062 3.1875 -9.71875 C 3.375 -9.394531 3.6875 -9.097656 4.125 -8.828125 C 4.5625 -8.566406 5.226562 -8.28125 6.125 -7.96875 C 7.632812 -7.425781 8.671875 -6.847656 9.234375 -6.234375 C 9.804688 -5.617188 10.09375 -4.816406 10.09375 -3.828125 Z M 10.09375 -3.828125 "/></g></g></g><g fill="#5ce1e6" fill-opacity="1"><g transform="translate(177.435027, 238.555545)"><g/></g></g><g fill="#5ce1e6" fill-opacity="1"><g transform="translate(184.139714, 238.555545)"><g><path d="M 10.09375 -3.828125 C 10.09375 -2.554688 9.632812 -1.566406 8.71875 -0.859375 C 7.800781 -0.148438 6.554688 0.203125 4.984375 0.203125 C 3.273438 0.203125 1.960938 -0.0195312 1.046875 -0.46875 L 1.046875 -2.078125 C 1.628906 -1.828125 2.269531 -1.628906 2.96875 -1.484375 C 3.664062 -1.335938 4.359375 -1.265625 5.046875 -1.265625 C 6.160156 -1.265625 7 -1.476562 7.5625 -1.90625 C 8.125 -2.332031 8.40625 -2.921875 8.40625 -3.671875 C 8.40625 -4.171875 8.300781 -4.578125 8.09375 -4.890625 C 7.894531 -5.210938 7.5625 -5.507812 7.09375 -5.78125 C 6.625 -6.050781 5.910156 -6.351562 4.953125 -6.6875 C 3.617188 -7.164062 2.664062 -7.734375 2.09375 -8.390625 C 1.519531 -9.046875 1.234375 -9.90625 1.234375 -10.96875 C 1.234375 -12.070312 1.648438 -12.953125 2.484375 -13.609375 C 3.316406 -14.265625 4.414062 -14.59375 5.78125 -14.59375 C 7.21875 -14.59375 8.535156 -14.332031 9.734375 -13.8125 L 9.21875 -12.359375 C 8.03125 -12.847656 6.875 -13.09375 5.75 -13.09375 C 4.863281 -13.09375 4.171875 -12.898438 3.671875 -12.515625 C 3.171875 -12.140625 2.921875 -11.613281 2.921875 -10.9375 C 2.921875 -10.445312 3.007812 -10.039062 3.1875 -9.71875 C 3.375 -9.394531 3.6875 -9.097656 4.125 -8.828125 C 4.5625 -8.566406 5.226562 -8.28125 6.125 -7.96875 C 7.632812 -7.425781 8.671875 -6.847656 9.234375 -6.234375 C 9.804688 -5.617188 10.09375 -4.816406 10.09375 -3.828125 Z M 10.09375 -3.828125 "/></g></g></g><g fill="#5ce1e6" fill-opacity="1"><g transform="translate(196.667915, 238.555545)"><g><path d="M 1.984375 0 L 1.984375 -14.390625 L 3.65625 -14.390625 L 3.65625 0 Z M 1.984375 0 "/></g></g></g><g fill="#5ce1e6" fill-opacity="1"><g transform="translate(203.756251, 238.555545)"><g><path d="M 10.09375 -3.828125 C 10.09375 -2.554688 9.632812 -1.566406 8.71875 -0.859375 C 7.800781 -0.148438 6.554688 0.203125 4.984375 0.203125 C 3.273438 0.203125 1.960938 -0.0195312 1.046875 -0.46875 L 1.046875 -2.078125 C 1.628906 -1.828125 2.269531 -1.628906 2.96875 -1.484375 C 3.664062 -1.335938 4.359375 -1.265625 5.046875 -1.265625 C 6.160156 -1.265625 7 -1.476562 7.5625 -1.90625 C 8.125 -2.332031 8.40625 -2.921875 8.40625 -3.671875 C 8.40625 -4.171875 8.300781 -4.578125 8.09375 -4.890625 C 7.894531 -5.210938 7.5625 -5.507812 7.09375 -5.78125 C 6.625 -6.050781 5.910156 -6.351562 4.953125 -6.6875 C 3.617188 -7.164062 2.664062 -7.734375 2.09375 -8.390625 C 1.519531 -9.046875 1.234375 -9.90625 1.234375 -10.96875 C 1.234375 -12.070312 1.648438 -12.953125 2.484375 -13.609375 C 3.316406 -14.265625 4.414062 -14.59375 5.78125 -14.59375 C 7.21875 -14.59375 8.535156 -14.332031 9.734375 -13.8125 L 9.21875 -12.359375 C 8.03125 -12.847656 6.875 -13.09375 5.75 -13.09375 C 4.863281 -13.09375 4.171875 -12.898438 3.671875 -12.515625 C 3.171875 -12.140625 2.921875 -11.613281 2.921875 -10.9375 C 2.921875 -10.445312 3.007812 -10.039062 3.1875 -9.71875 C 3.375 -9.394531 3.6875 -9.097656 4.125 -8.828125 C 4.5625 -8.566406 5.226562 -8.28125 6.125 -7.96875 C 7.632812 -7.425781 8.671875 -6.847656 9.234375 -6.234375 C 9.804688 -5.617188 10.09375 -4.816406 10.09375 -3.828125 Z M 10.09375 -3.828125 "/></g></g></g><g fill="#5ce1e6" fill-opacity="1"><g transform="translate(216.284452, 238.555545)"><g><path d="M 6.40625 0 L 4.734375 0 L 4.734375 -12.90625 L 0.171875 -12.90625 L 0.171875 -14.390625 L 10.96875 -14.390625 L 10.96875 -12.90625 L 6.40625 -12.90625 Z M 6.40625 0 "/></g></g></g><g fill="#5ce1e6" fill-opacity="1"><g transform="translate(228.901191, 238.555545)"><g><path d="M 10 0 L 1.984375 0 L 1.984375 -14.390625 L 10 -14.390625 L 10 -12.90625 L 3.65625 -12.90625 L 3.65625 -8.265625 L 9.609375 -8.265625 L 9.609375 -6.796875 L 3.65625 -6.796875 L 3.65625 -1.5 L 10 -1.5 Z M 10 0 "/></g></g></g><g fill="#5ce1e6" fill-opacity="1"><g transform="translate(241.576952, 238.555545)"><g><path d="M 8.34375 0 L 3.46875 -12.75 L 3.390625 -12.75 C 3.472656 -11.738281 3.515625 -10.539062 3.515625 -9.15625 L 3.515625 0 L 1.984375 0 L 1.984375 -14.390625 L 4.5 -14.390625 L 9.046875 -2.515625 L 9.140625 -2.515625 L 13.734375 -14.390625 L 16.234375 -14.390625 L 16.234375 0 L 14.5625 0 L 14.5625 -9.265625 C 14.5625 -10.328125 14.601562 -11.484375 14.6875 -12.734375 L 14.609375 -12.734375 L 9.6875 0 Z M 8.34375 0 "/></g></g></g><g fill="#5ce1e6" fill-opacity="1"><g transform="translate(261.236986, 238.555545)"><g><path d="M 11.015625 0 L 9.234375 -4.578125 L 3.46875 -4.578125 L 1.6875 0 L 0 0 L 5.6875 -14.453125 L 7.09375 -14.453125 L 12.75 0 Z M 8.703125 -6.078125 L 7.03125 -10.546875 C 6.820312 -11.109375 6.601562 -11.800781 6.375 -12.625 C 6.226562 -11.988281 6.019531 -11.296875 5.75 -10.546875 L 4.0625 -6.078125 Z M 8.703125 -6.078125 "/></g></g></g><g fill="#5ce1e6" fill-opacity="1"><g transform="translate(275.457155, 238.555545)"><g><path d="M 10.09375 -3.828125 C 10.09375 -2.554688 9.632812 -1.566406 8.71875 -0.859375 C 7.800781 -0.148438 6.554688 0.203125 4.984375 0.203125 C 3.273438 0.203125 1.960938 -0.0195312 1.046875 -0.46875 L 1.046875 -2.078125 C 1.628906 -1.828125 2.269531 -1.628906 2.96875 -1.484375 C 3.664062 -1.335938 4.359375 -1.265625 5.046875 -1.265625 C 6.160156 -1.265625 7 -1.476562 7.5625 -1.90625 C 8.125 -2.332031 8.40625 -2.921875 8.40625 -3.671875 C 8.40625 -4.171875 8.300781 -4.578125 8.09375 -4.890625 C 7.894531 -5.210938 7.5625 -5.507812 7.09375 -5.78125 C 6.625 -6.050781 5.910156 -6.351562 4.953125 -6.6875 C 3.617188 -7.164062 2.664062 -7.734375 2.09375 -8.390625 C 1.519531 -9.046875 1.234375 -9.90625 1.234375 -10.96875 C 1.234375 -12.070312 1.648438 -12.953125 2.484375 -13.609375 C 3.316406 -14.265625 4.414062 -14.59375 5.78125 -14.59375 C 7.21875 -14.59375 8.535156 -14.332031 9.734375 -13.8125 L 9.21875 -12.359375 C 8.03125 -12.847656 6.875 -13.09375 5.75 -13.09375 C 4.863281 -13.09375 4.171875 -12.898438 3.671875 -12.515625 C 3.171875 -12.140625 2.921875 -11.613281 2.921875 -10.9375 C 2.921875 -10.445312 3.007812 -10.039062 3.1875 -9.71875 C 3.375 -9.394531 3.6875 -9.097656 4.125 -8.828125 C 4.5625 -8.566406 5.226562 -8.28125 6.125 -7.96875 C 7.632812 -7.425781 8.671875 -6.847656 9.234375 -6.234375 C 9.804688 -5.617188 10.09375 -4.816406 10.09375 -3.828125 Z M 10.09375 -3.828125 "/></g></g></g><g fill="#5ce1e6" fill-opacity="1"><g transform="translate(119.538264, 259.765789)"><g><path d="M 3.4375 -3.4375 L 3.4375 -1.71875 L 8.59375 -1.71875 L 8.59375 -3.4375 Z M 1.71875 -8.59375 L 10.3125 -8.59375 L 10.3125 0 L 1.71875 0 L 1.71875 -5.15625 L 8.59375 -5.15625 L 8.59375 -6.875 L 1.71875 -6.875 Z M 1.71875 -8.59375 "/></g></g></g><g fill="#5ce1e6" fill-opacity="1"><g transform="translate(129.86135, 259.765789)"><g><path d="M 1.71875 -8.59375 L 10.3125 -8.59375 L 10.3125 0 L 3.4375 0 L 3.4375 3.4375 L 1.71875 3.4375 Z M 3.4375 -6.875 L 3.4375 -1.71875 L 8.59375 -1.71875 L 8.59375 -6.875 Z M 3.4375 -6.875 "/></g></g></g><g fill="#5ce1e6" fill-opacity="1"><g transform="translate(140.184437, 259.765789)"><g><path d="M 1.71875 -12.046875 L 5.15625 -12.046875 L 5.15625 -1.71875 L 6.875 -1.71875 L 6.875 0 L 3.4375 0 L 3.4375 -10.3125 L 1.71875 -10.3125 Z M 1.71875 -12.046875 "/></g></g></g><g fill="#5ce1e6" fill-opacity="1"><g transform="translate(147.066498, 259.765789)"><g><path d="M 1.71875 -8.59375 L 5.15625 -8.59375 L 5.15625 -1.71875 L 6.875 -1.71875 L 6.875 0 L 3.4375 0 L 3.4375 -6.875 L 1.71875 -6.875 Z M 3.4375 -12.046875 L 5.15625 -12.046875 L 5.15625 -10.3125 L 3.4375 -10.3125 Z M 3.4375 -12.046875 "/></g></g></g><g fill="#5ce1e6" fill-opacity="1"><g transform="translate(153.948559, 259.765789)"><g><path d="M 1.71875 -8.59375 L 10.3125 -8.59375 L 10.3125 -6.875 L 3.4375 -6.875 L 3.4375 -1.71875 L 10.3125 -1.71875 L 10.3125 0 L 1.71875 0 Z M 1.71875 -8.59375 "/></g></g></g><g fill="#5ce1e6" fill-opacity="1"><g transform="translate(164.271645, 259.765789)"><g><path d="M 3.4375 -3.4375 L 3.4375 -1.71875 L 8.59375 -1.71875 L 8.59375 -3.4375 Z M 1.71875 -8.59375 L 10.3125 -8.59375 L 10.3125 0 L 1.71875 0 L 1.71875 -5.15625 L 8.59375 -5.15625 L 8.59375 -6.875 L 1.71875 -6.875 Z M 1.71875 -8.59375 "/></g></g></g><g fill="#5ce1e6" fill-opacity="1"><g transform="translate(174.594731, 259.765789)"><g><path d="M 1.71875 -8.59375 L 10.3125 -8.59375 L 10.3125 -6.875 L 3.4375 -6.875 L 3.4375 -1.71875 L 10.3125 -1.71875 L 10.3125 0 L 1.71875 0 Z M 5.15625 0 L 6.875 0 L 6.875 3.4375 L 3.4375 3.4375 L 3.4375 1.71875 L 5.15625 1.71875 Z M 5.15625 0 "/></g></g></g><g fill="#5ce1e6" fill-opacity="1"><g transform="translate(184.917818, 259.765789)"><g><path d="M 1.71875 -8.59375 L 10.3125 -8.59375 L 10.3125 0 L 1.71875 0 Z M 3.4375 -6.875 L 3.4375 -1.71875 L 8.59375 -1.71875 L 8.59375 -6.875 Z M 1.71875 -11.90625 L 3.578125 -13.765625 L 5.703125 -13.765625 L 7.09375 -12.390625 L 8.046875 -12.390625 L 9.421875 -13.765625 L 10.671875 -12.515625 L 8.8125 -10.671875 L 6.671875 -10.671875 L 5.296875 -12.046875 L 4.328125 -12.046875 L 2.953125 -10.671875 Z M 1.71875 -11.90625 "/></g></g></g><g fill="#5ce1e6" fill-opacity="1"><g transform="translate(195.240904, 259.765789)"><g><path d="M 1.71875 -8.59375 L 10.3125 -8.59375 L 10.3125 -3.4375 L 3.4375 -3.4375 L 3.4375 -1.71875 L 10.3125 -1.71875 L 10.3125 0 L 1.71875 0 Z M 3.4375 -6.875 L 3.4375 -5.15625 L 8.59375 -5.15625 L 8.59375 -6.875 Z M 3.4375 -6.875 "/></g></g></g><g fill="#5ce1e6" fill-opacity="1"><g transform="translate(205.56399, 259.765789)"><g><path d="M 1.71875 -8.59375 L 10.3125 -8.59375 L 10.3125 -6.875 L 3.4375 -6.875 L 3.4375 -5.15625 L 10.3125 -5.15625 L 10.3125 0 L 1.71875 0 L 1.71875 -1.71875 L 8.59375 -1.71875 L 8.59375 -3.4375 L 1.71875 -3.4375 Z M 1.71875 -8.59375 "/></g></g></g><g fill="#5ce1e6" fill-opacity="1"><g transform="translate(215.887077, 259.765789)"><g/></g></g><g fill="#5ce1e6" fill-opacity="1"><g transform="translate(224.489648, 259.765789)"><g><path d="M 1.71875 -8.59375 L 3.4375 -8.59375 L 3.4375 -2.953125 L 4.671875 -1.71875 L 5.15625 -2.203125 L 5.15625 -8.59375 L 6.875 -8.59375 L 6.875 -2.203125 L 7.359375 -1.71875 L 8.59375 -2.953125 L 8.59375 -8.59375 L 10.3125 -8.59375 L 10.3125 -2.203125 L 8.125 0 L 6.40625 0 L 6.015625 -0.375 L 5.640625 0 L 3.921875 0 L 1.71875 -2.203125 Z M 1.71875 -8.59375 "/></g></g></g><g fill="#5ce1e6" fill-opacity="1"><g transform="translate(234.812739, 259.765789)"><g><path d="M 1.71875 -8.59375 L 10.3125 -8.59375 L 10.3125 -3.4375 L 3.4375 -3.4375 L 3.4375 -1.71875 L 10.3125 -1.71875 L 10.3125 0 L 1.71875 0 Z M 3.4375 -6.875 L 3.4375 -5.15625 L 8.59375 -5.15625 L 8.59375 -6.875 Z M 3.4375 -6.875 "/></g></g></g><g fill="#5ce1e6" fill-opacity="1"><g transform="translate(245.13582, 259.765789)"><g><path d="M 1.71875 -12.046875 L 3.4375 -12.046875 L 3.4375 -8.59375 L 10.3125 -8.59375 L 10.3125 0 L 1.71875 0 Z M 3.4375 -6.875 L 3.4375 -1.71875 L 8.59375 -1.71875 L 8.59375 -6.875 Z M 3.4375 -6.875 "/></g></g></g><g clip-path="url(#12d699c645)"><g clip-path="url(#e20badeb1c)"><path fill="url(#232aec7d26)" d="M 87.382812 107.050781 L 87.382812 211.269531 L 190.882812 211.269531 L 190.882812 107.050781 Z M 87.382812 107.050781 " fill-rule="nonzero"/></g></g><g clip-path="url(#5ec02d7b16)"><path fill="#5ce1e6" d="M 274.984375 184.035156 C 269.546875 184.035156 265.082031 188.066406 264.355469 193.300781 L 246.003906 193.300781 L 238.152344 181.992188 C 237.851562 181.570312 237.429688 181.390625 236.945312 181.390625 L 192.449219 181.390625 C 191.664062 181.390625 191 182.050781 191 182.832031 C 191 183.613281 191.664062 184.277344 192.449219 184.277344 L 236.222656 184.277344 L 244.070312 195.585938 C 244.371094 196.007812 244.792969 196.1875 245.277344 196.1875 L 264.417969 196.1875 C 265.140625 201.421875 269.609375 205.453125 275.042969 205.453125 C 280.960938 205.453125 285.789062 200.640625 285.789062 194.746094 C 285.789062 188.847656 280.898438 184.035156 274.984375 184.035156 Z M 274.984375 202.503906 C 270.695312 202.503906 267.195312 199.015625 267.195312 194.746094 C 267.195312 190.472656 270.695312 186.984375 274.984375 186.984375 C 279.269531 186.984375 282.769531 190.472656 282.769531 194.746094 C 282.769531 199.015625 279.328125 202.503906 274.984375 202.503906 Z M 274.984375 202.503906 " fill-opacity="1" fill-rule="nonzero"/></g><path fill="#5ce1e6" d="M 192.449219 167.550781 L 238.757812 167.550781 C 239.480469 172.785156 243.949219 176.816406 249.382812 176.816406 C 255.300781 176.816406 260.128906 172.003906 260.128906 166.109375 C 260.128906 160.210938 255.300781 155.398438 249.382812 155.398438 C 243.949219 155.398438 239.480469 159.429688 238.757812 164.664062 L 192.449219 164.664062 C 191.664062 164.664062 191 165.328125 191 166.109375 C 191 166.890625 191.664062 167.550781 192.449219 167.550781 Z M 249.382812 158.289062 C 253.667969 158.289062 257.171875 161.777344 257.171875 166.046875 C 257.171875 170.320312 253.667969 173.871094 249.382812 173.871094 C 245.097656 173.871094 241.59375 170.378906 241.59375 166.109375 C 241.59375 161.777344 245.097656 158.289062 249.382812 158.289062 Z M 249.382812 158.289062 " fill-opacity="1" fill-rule="nonzero"/><g clip-path="url(#cf1c8c23eb)"><path fill="#5ce1e6" d="M 192.449219 149.023438 L 232.839844 149.023438 C 233.324219 149.023438 233.804688 148.78125 234.109375 148.359375 L 239.785156 139.335938 L 264.660156 139.335938 L 270.816406 150.769531 C 271.058594 151.25 271.542969 151.550781 272.085938 151.550781 L 285.125 151.550781 C 285.851562 156.785156 290.316406 160.8125 295.753906 160.8125 C 301.667969 160.8125 306.5 156 306.5 150.105469 C 306.5 144.210938 301.667969 139.398438 295.753906 139.398438 C 290.316406 139.398438 285.851562 143.429688 285.125 148.660156 L 272.992188 148.660156 L 266.832031 137.230469 C 266.589844 136.75 266.105469 136.449219 265.5625 136.449219 L 239 136.449219 C 238.515625 136.449219 238.03125 136.691406 237.730469 137.109375 L 232.054688 146.136719 L 192.507812 146.136719 C 191.722656 146.136719 191.058594 146.796875 191.058594 147.578125 C 191 148.359375 191.664062 149.023438 192.449219 149.023438 Z M 295.753906 142.226562 C 300.039062 142.226562 303.539062 145.714844 303.539062 149.984375 C 303.539062 154.257812 300.039062 157.746094 295.753906 157.746094 C 291.464844 157.746094 287.964844 154.257812 287.964844 149.984375 C 287.902344 145.714844 291.40625 142.226562 295.753906 142.226562 Z M 295.753906 142.226562 " fill-opacity="1" fill-rule="nonzero"/></g><g clip-path="url(#09dab5987a)"><path fill="#5ce1e6" d="M 192.449219 131.996094 L 215.753906 131.996094 C 216.296875 131.996094 216.78125 131.695312 217.019531 131.277344 L 223.902344 119.605469 L 259.042969 119.605469 C 259.769531 124.839844 264.234375 128.871094 269.667969 128.871094 C 275.585938 128.871094 280.417969 124.054688 280.417969 118.160156 C 280.417969 112.265625 275.585938 107.453125 269.667969 107.453125 C 264.234375 107.453125 259.769531 111.484375 259.042969 116.71875 L 223.058594 116.71875 C 222.515625 116.71875 222.03125 117.019531 221.792969 117.4375 L 214.90625 129.109375 L 192.449219 129.109375 C 191.664062 129.109375 191 129.773438 191 130.554688 C 191 131.335938 191.664062 131.996094 192.449219 131.996094 Z M 269.667969 110.339844 C 273.957031 110.339844 277.457031 113.828125 277.457031 118.101562 C 277.457031 122.371094 273.957031 125.859375 269.667969 125.859375 C 265.382812 125.859375 261.882812 122.371094 261.882812 118.101562 C 261.820312 113.828125 265.324219 110.339844 269.667969 110.339844 Z M 269.667969 110.339844 " fill-opacity="1" fill-rule="nonzero"/></g></svg>