<svg xmlns="http://www.w3.org/2000/svg" xmlns:xlink="http://www.w3.org/1999/xlink" width="500" zoomAndPan="magnify" viewBox="0 0 375 374.999991" height="500" preserveAspectRatio="xMidYMid meet" version="1.0"><defs><g/></defs><rect x="-37.5" width="450" fill="#ffffff" y="-37.499999" height="449.999989" fill-opacity="1"/><rect x="-37.5" width="450" fill="#000000" y="-37.499999" height="449.999989" fill-opacity="1"/><g fill="#5ce1e6" fill-opacity="1"><g transform="translate(27.722275, 179.724185)"><g><path d="M 5.890625 -9.65625 L 5.890625 0 L 3.1875 0 L 3.1875 -23.21875 L 9.5625 -23.21875 C 12.40625 -23.21875 14.503906 -22.671875 15.859375 -21.578125 C 17.222656 -20.484375 17.90625 -18.84375 17.90625 -16.65625 C 17.90625 -13.582031 16.347656 -11.507812 13.234375 -10.4375 L 19.546875 0 L 16.359375 0 L 10.734375 -9.65625 Z M 5.890625 -11.96875 L 9.59375 -11.96875 C 11.5 -11.96875 12.894531 -12.34375 13.78125 -13.09375 C 14.664062 -13.851562 15.109375 -14.992188 15.109375 -16.515625 C 15.109375 -18.046875 14.65625 -19.148438 13.75 -19.828125 C 12.851562 -20.503906 11.40625 -20.84375 9.40625 -20.84375 L 5.890625 -20.84375 Z M 5.890625 -11.96875 "/></g></g></g><g fill="#5ce1e6" fill-opacity="1"><g transform="translate(50.191821, 179.724185)"><g><path d="M 16.125 0 L 3.1875 0 L 3.1875 -23.21875 L 16.125 -23.21875 L 16.125 -20.8125 L 5.890625 -20.8125 L 5.890625 -13.34375 L 15.515625 -13.34375 L 15.515625 -10.953125 L 5.890625 -10.953125 L 5.890625 -2.40625 L 16.125 -2.40625 Z M 16.125 0 "/></g></g></g><g fill="#5ce1e6" fill-opacity="1"><g transform="translate(70.64545, 179.724185)"><g><path d="M 16.125 0 L 3.1875 0 L 3.1875 -23.21875 L 16.125 -23.21875 L 16.125 -20.8125 L 5.890625 -20.8125 L 5.890625 -13.34375 L 15.515625 -13.34375 L 15.515625 -10.953125 L 5.890625 -10.953125 L 5.890625 -2.40625 L 16.125 -2.40625 Z M 16.125 0 "/></g></g></g><g fill="#5ce1e6" fill-opacity="1"><g transform="translate(91.099082, 179.724185)"><g><path d="M 5.890625 0 L 3.1875 0 L 3.1875 -23.21875 L 16.125 -23.21875 L 16.125 -20.8125 L 5.890625 -20.8125 L 5.890625 -12.328125 L 15.515625 -12.328125 L 15.515625 -9.921875 L 5.890625 -9.921875 Z M 5.890625 0 "/></g></g></g><g fill="#5ce1e6" fill-opacity="1"><g transform="translate(110.25109, 179.724185)"><g><path d="M 16.296875 -6.171875 C 16.296875 -4.128906 15.550781 -2.535156 14.0625 -1.390625 C 12.582031 -0.253906 10.570312 0.3125 8.03125 0.3125 C 5.28125 0.3125 3.164062 -0.0390625 1.6875 -0.75 L 1.6875 -3.34375 C 2.632812 -2.945312 3.671875 -2.628906 4.796875 -2.390625 C 5.921875 -2.160156 7.03125 -2.046875 8.125 -2.046875 C 9.925781 -2.046875 11.28125 -2.382812 12.1875 -3.0625 C 13.101562 -3.75 13.5625 -4.703125 13.5625 -5.921875 C 13.5625 -6.722656 13.398438 -7.378906 13.078125 -7.890625 C 12.753906 -8.410156 12.210938 -8.882812 11.453125 -9.3125 C 10.691406 -9.75 9.539062 -10.242188 8 -10.796875 C 5.84375 -11.566406 4.300781 -12.476562 3.375 -13.53125 C 2.445312 -14.59375 1.984375 -15.976562 1.984375 -17.6875 C 1.984375 -19.476562 2.65625 -20.898438 4 -21.953125 C 5.34375 -23.015625 7.117188 -23.546875 9.328125 -23.546875 C 11.640625 -23.546875 13.765625 -23.125 15.703125 -22.28125 L 14.859375 -19.921875 C 12.941406 -20.722656 11.078125 -21.125 9.265625 -21.125 C 7.835938 -21.125 6.722656 -20.816406 5.921875 -20.203125 C 5.117188 -19.597656 4.71875 -18.75 4.71875 -17.65625 C 4.71875 -16.851562 4.863281 -16.191406 5.15625 -15.671875 C 5.457031 -15.160156 5.957031 -14.691406 6.65625 -14.265625 C 7.363281 -13.835938 8.441406 -13.363281 9.890625 -12.84375 C 12.328125 -11.976562 14.003906 -11.046875 14.921875 -10.046875 C 15.835938 -9.054688 16.296875 -7.765625 16.296875 -6.171875 Z M 16.296875 -6.171875 "/></g></g></g><g fill="#5ce1e6" fill-opacity="1"><g transform="translate(130.466614, 179.724185)"><g><path d="M 9.09375 -11.609375 L 15.296875 -23.21875 L 18.203125 -23.21875 L 10.46875 -9 L 10.46875 0 L 7.734375 0 L 7.734375 -8.875 L 0 -23.21875 L 2.953125 -23.21875 Z M 9.09375 -11.609375 "/></g></g></g><g fill="#5ce1e6" fill-opacity="1"><g transform="translate(151.047226, 179.724185)"><g><path d="M 16.296875 -6.171875 C 16.296875 -4.128906 15.550781 -2.535156 14.0625 -1.390625 C 12.582031 -0.253906 10.570312 0.3125 8.03125 0.3125 C 5.28125 0.3125 3.164062 -0.0390625 1.6875 -0.75 L 1.6875 -3.34375 C 2.632812 -2.945312 3.671875 -2.628906 4.796875 -2.390625 C 5.921875 -2.160156 7.03125 -2.046875 8.125 -2.046875 C 9.925781 -2.046875 11.28125 -2.382812 12.1875 -3.0625 C 13.101562 -3.75 13.5625 -4.703125 13.5625 -5.921875 C 13.5625 -6.722656 13.398438 -7.378906 13.078125 -7.890625 C 12.753906 -8.410156 12.210938 -8.882812 11.453125 -9.3125 C 10.691406 -9.75 9.539062 -10.242188 8 -10.796875 C 5.84375 -11.566406 4.300781 -12.476562 3.375 -13.53125 C 2.445312 -14.59375 1.984375 -15.976562 1.984375 -17.6875 C 1.984375 -19.476562 2.65625 -20.898438 4 -21.953125 C 5.34375 -23.015625 7.117188 -23.546875 9.328125 -23.546875 C 11.640625 -23.546875 13.765625 -23.125 15.703125 -22.28125 L 14.859375 -19.921875 C 12.941406 -20.722656 11.078125 -21.125 9.265625 -21.125 C 7.835938 -21.125 6.722656 -20.816406 5.921875 -20.203125 C 5.117188 -19.597656 4.71875 -18.75 4.71875 -17.65625 C 4.71875 -16.851562 4.863281 -16.191406 5.15625 -15.671875 C 5.457031 -15.160156 5.957031 -14.691406 6.65625 -14.265625 C 7.363281 -13.835938 8.441406 -13.363281 9.890625 -12.84375 C 12.328125 -11.976562 14.003906 -11.046875 14.921875 -10.046875 C 15.835938 -9.054688 16.296875 -7.765625 16.296875 -6.171875 Z M 16.296875 -6.171875 "/></g></g></g><g fill="#5ce1e6" fill-opacity="1"><g transform="translate(171.262751, 179.724185)"><g/></g></g><g fill="#5ce1e6" fill-opacity="1"><g transform="translate(182.081239, 179.724185)"><g><path d="M 16.296875 -6.171875 C 16.296875 -4.128906 15.550781 -2.535156 14.0625 -1.390625 C 12.582031 -0.253906 10.570312 0.3125 8.03125 0.3125 C 5.28125 0.3125 3.164062 -0.0390625 1.6875 -0.75 L 1.6875 -3.34375 C 2.632812 -2.945312 3.671875 -2.628906 4.796875 -2.390625 C 5.921875 -2.160156 7.03125 -2.046875 8.125 -2.046875 C 9.925781 -2.046875 11.28125 -2.382812 12.1875 -3.0625 C 13.101562 -3.75 13.5625 -4.703125 13.5625 -5.921875 C 13.5625 -6.722656 13.398438 -7.378906 13.078125 -7.890625 C 12.753906 -8.410156 12.210938 -8.882812 11.453125 -9.3125 C 10.691406 -9.75 9.539062 -10.242188 8 -10.796875 C 5.84375 -11.566406 4.300781 -12.476562 3.375 -13.53125 C 2.445312 -14.59375 1.984375 -15.976562 1.984375 -17.6875 C 1.984375 -19.476562 2.65625 -20.898438 4 -21.953125 C 5.34375 -23.015625 7.117188 -23.546875 9.328125 -23.546875 C 11.640625 -23.546875 13.765625 -23.125 15.703125 -22.28125 L 14.859375 -19.921875 C 12.941406 -20.722656 11.078125 -21.125 9.265625 -21.125 C 7.835938 -21.125 6.722656 -20.816406 5.921875 -20.203125 C 5.117188 -19.597656 4.71875 -18.75 4.71875 -17.65625 C 4.71875 -16.851562 4.863281 -16.191406 5.15625 -15.671875 C 5.457031 -15.160156 5.957031 -14.691406 6.65625 -14.265625 C 7.363281 -13.835938 8.441406 -13.363281 9.890625 -12.84375 C 12.328125 -11.976562 14.003906 -11.046875 14.921875 -10.046875 C 15.835938 -9.054688 16.296875 -7.765625 16.296875 -6.171875 Z M 16.296875 -6.171875 "/></g></g></g><g fill="#5ce1e6" fill-opacity="1"><g transform="translate(202.296763, 179.724185)"><g><path d="M 3.1875 0 L 3.1875 -23.21875 L 5.890625 -23.21875 L 5.890625 0 Z M 3.1875 0 "/></g></g></g><g fill="#5ce1e6" fill-opacity="1"><g transform="translate(213.734313, 179.724185)"><g><path d="M 16.296875 -6.171875 C 16.296875 -4.128906 15.550781 -2.535156 14.0625 -1.390625 C 12.582031 -0.253906 10.570312 0.3125 8.03125 0.3125 C 5.28125 0.3125 3.164062 -0.0390625 1.6875 -0.75 L 1.6875 -3.34375 C 2.632812 -2.945312 3.671875 -2.628906 4.796875 -2.390625 C 5.921875 -2.160156 7.03125 -2.046875 8.125 -2.046875 C 9.925781 -2.046875 11.28125 -2.382812 12.1875 -3.0625 C 13.101562 -3.75 13.5625 -4.703125 13.5625 -5.921875 C 13.5625 -6.722656 13.398438 -7.378906 13.078125 -7.890625 C 12.753906 -8.410156 12.210938 -8.882812 11.453125 -9.3125 C 10.691406 -9.75 9.539062 -10.242188 8 -10.796875 C 5.84375 -11.566406 4.300781 -12.476562 3.375 -13.53125 C 2.445312 -14.59375 1.984375 -15.976562 1.984375 -17.6875 C 1.984375 -19.476562 2.65625 -20.898438 4 -21.953125 C 5.34375 -23.015625 7.117188 -23.546875 9.328125 -23.546875 C 11.640625 -23.546875 13.765625 -23.125 15.703125 -22.28125 L 14.859375 -19.921875 C 12.941406 -20.722656 11.078125 -21.125 9.265625 -21.125 C 7.835938 -21.125 6.722656 -20.816406 5.921875 -20.203125 C 5.117188 -19.597656 4.71875 -18.75 4.71875 -17.65625 C 4.71875 -16.851562 4.863281 -16.191406 5.15625 -15.671875 C 5.457031 -15.160156 5.957031 -14.691406 6.65625 -14.265625 C 7.363281 -13.835938 8.441406 -13.363281 9.890625 -12.84375 C 12.328125 -11.976562 14.003906 -11.046875 14.921875 -10.046875 C 15.835938 -9.054688 16.296875 -7.765625 16.296875 -6.171875 Z M 16.296875 -6.171875 "/></g></g></g><g fill="#5ce1e6" fill-opacity="1"><g transform="translate(233.949837, 179.724185)"><g><path d="M 10.328125 0 L 7.640625 0 L 7.640625 -20.8125 L 0.28125 -20.8125 L 0.28125 -23.21875 L 17.6875 -23.21875 L 17.6875 -20.8125 L 10.328125 -20.8125 Z M 10.328125 0 "/></g></g></g><g fill="#5ce1e6" fill-opacity="1"><g transform="translate(254.308222, 179.724185)"><g><path d="M 16.125 0 L 3.1875 0 L 3.1875 -23.21875 L 16.125 -23.21875 L 16.125 -20.8125 L 5.890625 -20.8125 L 5.890625 -13.34375 L 15.515625 -13.34375 L 15.515625 -10.953125 L 5.890625 -10.953125 L 5.890625 -2.40625 L 16.125 -2.40625 Z M 16.125 0 "/></g></g></g><g fill="#5ce1e6" fill-opacity="1"><g transform="translate(274.76186, 179.724185)"><g><path d="M 13.46875 0 L 5.59375 -20.578125 L 5.46875 -20.578125 C 5.613281 -18.941406 5.6875 -17.003906 5.6875 -14.765625 L 5.6875 0 L 3.1875 0 L 3.1875 -23.21875 L 7.25 -23.21875 L 14.609375 -4.0625 L 14.734375 -4.0625 L 22.140625 -23.21875 L 26.1875 -23.21875 L 26.1875 0 L 23.484375 0 L 23.484375 -14.953125 C 23.484375 -16.671875 23.554688 -18.535156 23.703125 -20.546875 L 23.578125 -20.546875 L 15.640625 0 Z M 13.46875 0 "/></g></g></g><g fill="#5ce1e6" fill-opacity="1"><g transform="translate(306.48558, 179.724185)"><g><path d="M 17.78125 0 L 14.890625 -7.375 L 5.59375 -7.375 L 2.734375 0 L 0 0 L 9.171875 -23.3125 L 11.453125 -23.3125 L 20.578125 0 Z M 14.046875 -9.8125 L 11.359375 -17 C 11.003906 -17.914062 10.640625 -19.035156 10.265625 -20.359375 C 10.035156 -19.335938 9.703125 -18.21875 9.265625 -17 L 6.546875 -9.8125 Z M 14.046875 -9.8125 "/></g></g></g><g fill="#5ce1e6" fill-opacity="1"><g transform="translate(329.431324, 179.724185)"><g><path d="M 16.296875 -6.171875 C 16.296875 -4.128906 15.550781 -2.535156 14.0625 -1.390625 C 12.582031 -0.253906 10.570312 0.3125 8.03125 0.3125 C 5.28125 0.3125 3.164062 -0.0390625 1.6875 -0.75 L 1.6875 -3.34375 C 2.632812 -2.945312 3.671875 -2.628906 4.796875 -2.390625 C 5.921875 -2.160156 7.03125 -2.046875 8.125 -2.046875 C 9.925781 -2.046875 11.28125 -2.382812 12.1875 -3.0625 C 13.101562 -3.75 13.5625 -4.703125 13.5625 -5.921875 C 13.5625 -6.722656 13.398438 -7.378906 13.078125 -7.890625 C 12.753906 -8.410156 12.210938 -8.882812 11.453125 -9.3125 C 10.691406 -9.75 9.539062 -10.242188 8 -10.796875 C 5.84375 -11.566406 4.300781 -12.476562 3.375 -13.53125 C 2.445312 -14.59375 1.984375 -15.976562 1.984375 -17.6875 C 1.984375 -19.476562 2.65625 -20.898438 4 -21.953125 C 5.34375 -23.015625 7.117188 -23.546875 9.328125 -23.546875 C 11.640625 -23.546875 13.765625 -23.125 15.703125 -22.28125 L 14.859375 -19.921875 C 12.941406 -20.722656 11.078125 -21.125 9.265625 -21.125 C 7.835938 -21.125 6.722656 -20.816406 5.921875 -20.203125 C 5.117188 -19.597656 4.71875 -18.75 4.71875 -17.65625 C 4.71875 -16.851562 4.863281 -16.191406 5.15625 -15.671875 C 5.457031 -15.160156 5.957031 -14.691406 6.65625 -14.265625 C 7.363281 -13.835938 8.441406 -13.363281 9.890625 -12.84375 C 12.328125 -11.976562 14.003906 -11.046875 14.921875 -10.046875 C 15.835938 -9.054688 16.296875 -7.765625 16.296875 -6.171875 Z M 16.296875 -6.171875 "/></g></g></g></svg>